<svg width="56" height="29" viewBox="0 0 56 29" fill="none" xmlns="http://www.w3.org/2000/svg">
<path d="M19.336 5.736L23.752 4.2H25.672V21H23.464V6.6L19.888 7.656L19.336 5.736ZM39.8907 18.936C38.7707 20.52 37.1787 21.312 35.1147 21.312C33.0507 21.312 31.4587 20.52 30.3387 18.936C29.2027 17.336 28.6347 15.224 28.6347 12.6C28.6347 9.976 29.2027 7.864 30.3387 6.264C31.4587 4.68 33.0507 3.888 35.1147 3.888C37.1787 3.888 38.7707 4.68 39.8907 6.264C41.0267 7.864 41.5947 9.976 41.5947 12.6C41.5947 15.224 41.0267 17.336 39.8907 18.936ZM30.8667 12.6C30.8667 14.68 31.2347 16.288 31.9707 17.424C32.7067 18.56 33.7547 19.128 35.1147 19.128C36.4747 19.128 37.5227 18.56 38.2587 17.424C39.0107 16.288 39.3867 14.68 39.3867 12.6C39.3867 10.52 39.0107 8.912 38.2587 7.776C37.5227 6.624 36.4747 6.048 35.1147 6.048C33.7547 6.048 32.7067 6.616 31.9707 7.752C31.2347 8.888 30.8667 10.504 30.8667 12.6ZM54.9119 9.528C54.9119 10.84 54.5679 11.968 53.8799 12.912H53.9039L48.4799 21H45.9599L49.9439 15.12C49.4639 15.152 49.1919 15.168 49.1279 15.168C47.4319 15.168 46.0399 14.648 44.9519 13.608C43.8799 12.552 43.3439 11.192 43.3439 9.528C43.3439 7.848 43.8799 6.496 44.9519 5.472C46.0239 4.416 47.4159 3.888 49.1279 3.888C50.8079 3.888 52.1919 4.416 53.2799 5.472C54.3679 6.512 54.9119 7.864 54.9119 9.528ZM49.1279 6.024C48.0719 6.024 47.2079 6.344 46.5359 6.984C45.8799 7.624 45.5519 8.472 45.5519 9.528C45.5519 10.584 45.8799 11.44 46.5359 12.096C47.2079 12.736 48.0719 13.056 49.1279 13.056C50.1839 13.056 51.0399 12.736 51.6959 12.096C52.3679 11.44 52.7039 10.584 52.7039 9.528C52.7039 8.472 52.3759 7.624 51.7199 6.984C51.0639 6.344 50.1999 6.024 49.1279 6.024Z" fill="white"/>
<path d="M5 7V21.6667" stroke="#1F86FF" stroke-linecap="round" stroke-linejoin="round"/>
<path d="M8.33333 9.66797H3.33333C2.71449 9.66797 2.121 9.9138 1.68342 10.3514C1.24583 10.789 1 11.3825 1 12.0013C1 12.6201 1.24583 13.2136 1.68342 13.6512C2.121 14.0888 2.71449 14.3346 3.33333 14.3346H6.66667C7.28551 14.3346 7.879 14.5805 8.31658 15.0181C8.75417 15.4556 9 16.0491 9 16.668C9 17.2868 8.75417 17.8803 8.31658 18.3179C7.879 18.7555 7.28551 19.0013 6.66667 19.0013H1" stroke="#1F86FF" stroke-linecap="round" stroke-linejoin="round"/>
</svg>
